<?xml version="1.0" encoding="UTF-8"?>
<svg id="Capa_2" data-name="Capa 2" xmlns="http://www.w3.org/2000/svg" viewBox="0 0 281.69 114.19">
  <defs>
    <style>
      .cls-1 {
        fill: #fff;
      }

      .cls-2 {
        fill: #05c7f2;
      }

      .cls-3 {
        fill: #05aff2;
      }
    </style>
  </defs>
  <g id="Capa_1-2" data-name="Capa 1">
    <g>
      <path class="cls-1" d="M127.53,67.46c0-3.44,2.79-6.24,6.24-6.24s6.24,2.79,6.24,6.24"/>
      <path class="cls-2" d="M0,4.55h31.98v66.55c0,7.79,3.73,10.39,12.17,10.39h51.6v31.33h-59.87c-9.9,0-18.5-3.25-25.16-9.74C2.6,95.29,0,87.01,0,75.16V4.55Z"/>
      <path class="cls-3" d="M182.55,82.59c-8.49,0-12.28-2.63-12.28-10.47V5h-32.25v71.22c0,11.94,2.63,20.29,10.81,28.15,6.71,6.54,15.39,9.82,25.37,9.82h42.23v-31.6h-33.89Z"/>
      <polygon class="cls-2" points="281.69 4.29 249.55 53.22 249.55 114.19 216.44 114.19 216.44 53.22 185.14 4.29 218.42 4.29 232.75 27.03 249.23 4.29 281.69 4.29"/>
      <path class="cls-3" d="M50.32,55.23c0-73.7,114.14-73.54,114.14.16,0,78.43-114.14,78.43-114.14-.16M82.12,55.71c0,35.71,50.55,35.87,50.55,0,0-13.7-11.58-24.13-25.27-24.13s-25.27,10.43-25.27,24.13"/>
      <path class="cls-2" d="M165.43,27.37c-.93,1.5-2.03,2.9-3.17,4.33-2.37,2.96-4.8,5.93-6.16,9.43-.87,2.27-1.2,4.73-2.13,7-2.66,6.43-6.36,5.36-8.73-.5-1.83-4.46-1.83-9.99-2.7-14.79-1.63-9.16-5.5-23.52-14.83-27.68-1.37-.57-5.43-1.07-4.33-3.33.1-.2.23-.37.4-.5.73-.7,2-1.07,2.9-1.17,6.23-.77,17.76,2.67,23.55,5.33,7,3.27,20.92,12.76,15.19,21.89"/>
      <path class="cls-2" d="M91.6,2.75c-.23,1.4-3.57,1.97-4.7,2.47-1.96.9-3.63,2.4-5.1,3.93-5.6,5.96-8.19,15.59-9.59,23.49-.87,5-1.2,15.86-5.36,19.09-3.9,3-5.96-3.26-6.86-5.96-1.33-4.13-1.73-5.96-4.1-9.53-.07-.13-.17-.3-.27-.43-4.26-6.33-10.83-10.36-5.8-18.59C55.65,7.65,73.04.92,83.77.09c2.3-.17,7.03-.4,7.76,2.36.03.1.07.2.07.3"/>
    </g>
  </g>
</svg>