<?xml version="1.0" encoding="UTF-8"?>
<svg id="Capa_2" data-name="Capa 2" xmlns="http://www.w3.org/2000/svg" viewBox="0 0 69.34 66.67">
  <defs>
    <style>
      .cls-1 {
        fill: #05c7f2;
      }

      .cls-2 {
        fill: #05aff2;
      }
    </style>
  </defs>
  <g id="Capa_1-2" data-name="Capa 1">
    <path class="cls-2" d="M1.35,32.24c0-43.03,66.64-42.93,66.64.1,0,45.79-66.64,45.79-66.64-.1M19.92,32.53c0,20.85,29.51,20.94,29.51,0,0-8-6.76-14.09-14.76-14.09s-14.76,6.09-14.76,14.09"/>
    <path class="cls-1" d="M68.56,15.98c-.55.88-1.19,1.69-1.85,2.53-1.38,1.73-2.8,3.46-3.6,5.5-.51,1.32-.7,2.76-1.24,4.09-1.56,3.75-3.71,3.13-5.1-.29-1.07-2.61-1.07-5.83-1.58-8.64-.95-5.35-3.21-13.73-8.66-16.16-.8-.33-3.17-.62-2.53-1.94.06-.12.14-.21.23-.29.43-.41,1.17-.62,1.69-.68,3.64-.45,10.37,1.56,13.75,3.11,4.09,1.91,12.22,7.45,8.87,12.78"/>
    <path class="cls-1" d="M25.45,1.61c-.14.82-2.08,1.15-2.74,1.44-1.15.52-2.12,1.4-2.98,2.3-3.27,3.48-4.79,9.1-5.6,13.71-.51,2.92-.7,9.26-3.13,11.14-2.28,1.75-3.48-1.91-4.01-3.48-.78-2.41-1.01-3.48-2.39-5.56-.04-.08-.1-.18-.15-.25-2.49-3.7-6.32-6.05-3.39-10.85C4.46,4.47,14.62.54,20.88.05c1.34-.1,4.1-.23,4.53,1.38.02.06.04.12.04.17"/>
  </g>
</svg>